<?xml version="1.0" encoding="utf-8"?>
<!-- Generator: Adobe Illustrator 26.5.0, SVG Export Plug-In . SVG Version: 6.00 Build 0)  -->
<svg version="1.1" id="Capa_1" xmlns="http://www.w3.org/2000/svg" xmlns:xlink="http://www.w3.org/1999/xlink" x="0px" y="0px"
	 viewBox="0 0 384.79 607.32" style="enable-background:new 0 0 384.79 607.32;" xml:space="preserve">
<g>
	<path d="M310.99,68.63h-33.45v33.45h8.07c-28.35,42.12-34.02,41.71-74.34,38.77c-11.64-0.85-26.12-1.91-44.68-2.23
		c-32.77-0.57-57.38,7.11-73.16,22.83c-5.5,5.47-9.25,11.27-11.81,16.67H57.04v44.1h44.1v-44.1H88.38c2.23-4.14,5.26-8.44,9.36-12.5
		c14.6-14.46,37.72-21.52,68.74-20.99c18.39,0.32,32.78,1.37,44.34,2.21c22.53,1.65,34.94,2.55,46.69-4.02
		c10.63-5.94,19.89-17.64,35.31-40.73h18.17V68.63z"/>
	<path d="M288.45,191.85c-3.44-1.37-7.22-0.46-9.67,2.02l-136.1-95.55c0.08-0.17,0.17-0.34,0.24-0.53c1.83-4.59-0.41-9.8-5-11.63
		c-4.59-1.83-9.8,0.41-11.63,5.01c-1.83,4.59,0.41,9.8,5,11.63c3.44,1.37,7.22,0.46,9.67-2.02l136.1,95.55
		c-0.08,0.17-0.17,0.34-0.24,0.53c-1.83,4.59,0.41,9.8,5,11.63c4.59,1.83,9.8-0.41,11.63-5
		C295.28,198.88,293.04,193.67,288.45,191.85z"/>
</g>
<g>
	<g>
		<polygon points="262.77,558.71 243.6,558.71 243.6,498.78 201.14,394.14 163.66,394.14 124.43,498.66 124.43,558.71 
			105.26,558.71 105.26,495.18 150.39,374.97 214.05,374.97 262.77,495.04 		"/>
	</g>
	<path d="M216.06,205.45l-34.43-62.03l-20.59,41l-51.22,92.52l-2.77,5.01l3.37,4.64c0.29,0.39,28.75,39.91,33.96,74.7l1.15,7.67
		h69.55l8.1-0.01l0.85-8.06c0.05-0.5,5.62-50.71,32.03-70.52l6.39-4.79L216.06,205.45z M207.3,350.95h-46.56
		c-6.6-29.53-24.89-58.91-32.46-70.18l45.96-83.02v65.98c-5.74,3.18-9.64,9.3-9.64,16.31c0,10.28,8.36,18.64,18.64,18.64
		s18.64-8.36,18.64-18.64c0-7.02-3.9-13.13-9.64-16.31v-64.11l8.12,14.64l38.76,66.95C218.01,301.62,209.98,335.49,207.3,350.95z"/>
</g>
</svg>
